# xmcd
#
# Track frame offsets: 
#        150
#        19180
#        33419
#        46232
#        59741
#        78312
#        95139
#        109984
#        123715
#        140125
#        156697
#
# Disc length: 2301 seconds
#
# Revision: 3
# Processed by: cddbd v1.5.2PL0 Copyright (c) Steve Scherf et al.
# Submitted via: ExactAudioCopyFreeDBPlugin 1.0
#
DISCID=a708fb0b
DTITLE=NATHANIEL RATELIFF and THE NIGHT SWEATS - Nathaniel Rateliff and Th
DTITLE=e Night Sweats
DYEAR=2015
DGENRE=Americana
TTITLE0=I need never get old
TTITLE1=Howling at nothing
TTITLE2=Trying so hard not to know
TTITLE3=I've been failing
TTITLE4=S.O.B.
TTITLE5=Wasting time
TTITLE6=Thank you
TTITLE7=Look it here
TTITLE8=Shake
TTITLE9=I'd be waiting
TTITLE10=Mellow out
EXTD=YEAR: 2015
EXTT0=
EXTT1=
EXTT2=
EXTT3=
EXTT4=
EXTT5=
EXTT6=
EXTT7=
EXTT8=
EXTT9=
EXTT10=
PLAYORDER=
